{"title":"[MilfLessons] Diana Prince (Two Cumshots, One Lesson)","uid":11120930,"size":384230137,"categoryP":"porn","categoryS":"movie_clips","magnet":"?xt=urn:btih:094c72c85c22cbf58b55a2eefb30e3fe780ab20c&amp;dn=%5BMilfLessons%5D+Diana+Prince+%28Two+Cumshots%2C+One+Lesson%29&amp;tr=udp%3A%2F%2Ftracker.openbittorrent.com%3A80&amp;tr=udp%3A%2F%2Fopen.demonii.com%3A1337&amp;tr=udp%3A%2F%2Ftracker.coppersurfer.tk%3A6969&amp;tr=udp%3A%2F%2Fexodus.desync.com%3A6969","seeders":1,"leechers":0,"uploader":"supertongo","files":1,"time":1411913500,"description":"[MilfLessons] Diana Prince (Two Cumshots, One Lesson)\n\n:::Media info:::\nGeneral\n\nFormat                         : MPEG-4\nFormat profile                 : Base Media\nCodec ID                       : isom\nFile size                      : 366 MiB\nDuration                       : 39mn 49s\nOverall bit rate mode          : Variable\nOverall bit rate               : 1 287 Kbps\nWriting application            : Lavf54.59.106\n\nVideo\nID                             : 1\nFormat                         : MPEG-4 Visual\nFormat profile                 : Simple@L1\nFormat settings, BVOP          : No\nFormat settings, QPel          : No\nFormat settings, GMC           : No warppoints\nFormat settings, Matrix        : Default (H.263)\nCodec ID                       : 20\nDuration                       : 39mn 49s\nBit rate mode                  : Constant\nBit rate                       : 1 199 Kbps\nWidth                          : 640 pixels\nHeight                         : 480 pixels\nDisplay aspect ratio           : 4:3\nFrame rate mode                : Constant\nFrame rate                     : 29.970 fps\nColor space                    : YUV\nChroma subsampling             : 4:2:0\nBit depth                      : 8 bits\nScan type                      : Progressive\nCompression mode               : Lossy\nBits/(Pixel*Frame)             : 0.130\nStream size                    : 342 MiB (93%)\nWriting library                : Lavc54.86.100\n\nAudio\nID                             : 2\nFormat                         : AAC\nFormat/Info                    : Advanced Audio Codec\nFormat profile                 : LC\nCodec ID                       : 40\nDuration                       : 39mn 49s\nBit rate mode                  : Variable\nBit rate                       : 80.0 Kbps\nMaximum bit rate               : 96.0 Kbps\nChannel(s)                     : 2 channels\nChannel positions              : Front: L R\nSampling rate                  : 44.1 KHz\nCompression mode               : Lossy\nStream size                    : 22.8 MiB (6%)\n &lt;a href=&quot;\nhttp://bayimg.com/DaaoKAaGK&quot; rel=&quot;nofollow&quot; target=&quot;_NEW&quot;&gt;\nhttp://bayimg.com/DaaoKAaGK&lt;/a&gt;","torrent":{"xt":"urn:btih:094c72c85c22cbf58b55a2eefb30e3fe780ab20c","amp;dn":"%5BMilfLessons%5D+Diana+Prince+%28Two+Cumshots%2C+One+Lesson%29","amp;tr":["udp%3A%2F%2Ftracker.openbittorrent.com%3A80","udp%3A%2F%2Fopen.demonii.com%3A1337","udp%3A%2F%2Ftracker.coppersurfer.tk%3A6969","udp%3A%2F%2Fexodus.desync.com%3A6969"],"infoHash":"094c72c85c22cbf58b55a2eefb30e3fe780ab20c","infoHashBuffer":{"type":"Buffer","data":[9,76,114,200,92,34,203,245,139,85,162,238,251,48,227,254,120,10,178,12]},"announce":[],"urlList":[]}}